<svg version="1.1" xmlns="http://www.w3.org/2000/svg" xmlns:xlink="http://www.w3.org/1999/xlink" width="600" height="466" viewBox="0,0,299.5952,232.54198"><g transform="translate(-90.20481,-65.40802)"><g data-paper-data="{&quot;isPaintingLayer&quot;:true}" fill-rule="nonzero" stroke-linejoin="miter" stroke-miterlimit="10" stroke-dasharray="" stroke-dashoffset="0" style="mix-blend-mode: normal"><path d="M226.675,183.29005c0,0 0.49771,-7.9852 3.7437,-14.08536c2.40455,-4.51888 7.14401,-5.67822 7.14401,-5.67822" data-paper-data="{&quot;index&quot;:null}" fill="none" stroke="#000000" stroke-width="2" stroke-linecap="round"/><path d="M104.35921,162.59277l-0.47338,-25.36589c0,0 9.40573,16.38429 25.40517,16.17021c14.40991,-0.19281 26.50868,-14.30277 26.50868,-14.30277l-0.78896,23.8097z" fill="#fff700" stroke="none" stroke-width="0" stroke-linecap="butt"/><path d="M130.19789,154.60694v17.97398" fill="none" stroke="#000000" stroke-width="3" stroke-linecap="round"/><path d="M237.52336,171.4916v-17.97399" fill="none" stroke="#000000" stroke-width="3" stroke-linecap="round"/><path d="M330.93147,153.22712v17.97399" fill="none" stroke="#000000" stroke-width="3" stroke-linecap="round"/><path d="M330.97082,163.23601c0,0 7.76171,0.87332 11.69961,4.2773c5.31589,4.59513 6.13099,10.61024 6.13099,10.61024" fill="none" stroke="#000000" stroke-width="2" stroke-linecap="round"/><path d="M385.30001,248.95v44.5" fill="none" stroke="#c3c3c3" stroke-width="9" stroke-linecap="round"/><path d="M94.8,248.95v44.5" fill="none" stroke="#c3c3c3" stroke-width="9" stroke-linecap="round"/><g fill="none" stroke="#c64901" stroke-width="9" stroke-linecap="round"><path d="M385.29486,247.32936v-77.04025" data-paper-data="{&quot;index&quot;:null}"/><g><path d="M94.70481,247.71095h290.59016" data-paper-data="{&quot;index&quot;:null}"/><g><path d="M94.70492,170.67069v77.04026"/><path d="M94.70492,170.28906h290.59027"/></g></g></g><path d="M96.30001,247.95v-75h288v75z" fill="#c74900" stroke="none" stroke-width="0" stroke-linecap="butt"/><g><path d="M324.80097,203.88468v-27.6428h16.80534v27.64281z" fill="#ffffff" stroke="none" stroke-width="0" stroke-linecap="butt"/><g fill="none" stroke="#ffffff" stroke-width="9" stroke-linecap="round"><path d="M341.11672,202.93097v-27.13926" data-paper-data="{&quot;index&quot;:null}"/><g><path d="M341.11673,203.06539h-16.70409" data-paper-data="{&quot;index&quot;:null}"/><g><path d="M324.41265,203.06539v-27.13926"/><path d="M324.41265,175.79169h16.70409"/></g></g></g></g><path d="M305.8803,134.27022c-3.15871,-2.76395 25.00914,-15.03269 25.00914,-15.03269l26.8934,14.46183c0,0 -26.73974,43.22839 -51.90254,0.57086z" fill="#ffffff" stroke="none" stroke-width="0" stroke-linecap="butt"/><path d="M106.11276,137.83605c-2.90972,-2.26039 23.03776,-12.29389 23.03776,-12.29389l24.77348,11.82703c0,0 -24.63193,35.35262 -47.81124,0.46686z" fill="#ffffff" stroke="none" stroke-width="0" stroke-linecap="butt"/><g><path d="M251.85676,193.3714l-27.63531,-0.64344l0.39118,-16.80079l27.63532,0.64344z" fill="#ffffff" stroke="none" stroke-width="0" stroke-linecap="butt"/><g fill="none" stroke="#ffffff" stroke-width="9" stroke-linecap="round"><path d="M251.2831,177.03787l-27.13191,-0.63172" data-paper-data="{&quot;index&quot;:null}"/><g><path d="M251.02866,193.74056l0.38882,-16.69956" data-paper-data="{&quot;index&quot;:null}"/><g><path d="M251.02866,193.74055l-27.13191,-0.63172"/><path d="M223.76235,193.1057l0.38882,-16.69957"/></g></g></g></g><g><path d="M123.6214,205.05543v-27.6428h16.80534v27.64281z" fill="#ffffff" stroke="none" stroke-width="0" stroke-linecap="butt"/><g fill="none" stroke="#ffffff" stroke-width="9" stroke-linecap="round"><path d="M139.93715,176.96247v27.13926" data-paper-data="{&quot;index&quot;:null}"/><g><path d="M139.93716,204.23615h-16.70409" data-paper-data="{&quot;index&quot;:null}"/><g><path d="M123.23308,177.09689v27.13926"/><path d="M123.23308,176.96245h16.70409"/></g></g></g></g><path d="M213.41191,134.25681c-8.25868,-23.11485 48.60021,-16.65122 48.60021,-16.65122c0,0 3.3628,25.79417 -14.20136,32.36872c-29.10913,9.26628 -33.77803,-13.97993 -34.39884,-15.7175z" fill="#ffffff" stroke="none" stroke-width="0" stroke-linecap="butt"/><path d="M317.85297,104.32904c16.09647,-9.07267 31.59738,-0.80944 37.15501,10.15675c4.06446,8.01987 2.93203,17.70578 1.78827,17.9169c-6.4106,1.18326 -24.58766,-10.47011 -24.58766,-10.47011c0,0 -16.46724,11.39762 -25.62203,9.53639c0,0 -3.73074,-18.68688 11.26641,-27.13993z" fill="#3e1e00" stroke="none" stroke-width="0" stroke-linecap="butt"/><path d="M105.77934,135.82631c-1.86648,-0.37947 -5.0562,-19.55836 9.94095,-28.0114c16.09646,-9.07267 31.59739,-0.80944 37.15501,10.15675c4.06446,8.01987 1.38565,18.57726 0.24189,18.78837c-6.4106,1.18326 -23.04129,-11.34159 -23.04129,-11.34159c0,0 -15.14178,12.26908 -24.29657,10.40786z" fill="#fff700" stroke="none" stroke-width="0" stroke-linecap="butt"/><path d="M103.58807,128.29675c0,-14.1381 11.62131,-25.59931 25.95693,-25.59931c14.33561,0 25.95693,11.4612 25.95693,25.59931c0,14.1381 -11.62132,25.59931 -25.95693,25.59931c-14.33562,0 -25.95692,-11.46121 -25.95692,-25.59931z" fill="none" stroke="#000000" stroke-width="3" stroke-linecap="butt"/><path d="M305.72074,127.02064c0,-14.1381 11.62131,-25.59931 25.95693,-25.59931c14.33562,0 25.95693,11.46121 25.95693,25.59931c0,14.1381 -11.62131,25.59931 -25.95693,25.59931c-14.33562,0 -25.95693,-11.4612 -25.95693,-25.59931z" fill="none" stroke="#000000" stroke-width="3" stroke-linecap="butt"/><path d="M151.636,137.48349c0,0 -11.51755,-3.14618 -17.07602,-7.54799c-4.23415,-3.35307 -8.32863,-8.06578 -8.32863,-8.06578" fill="none" stroke="#000000" stroke-width="2.5" stroke-linecap="round"/><path d="M129.70281,125.76013c0,0 -3.20982,4.08662 -8.55469,6.919c-5.3862,2.85429 -16.00841,4.33744 -16.00841,4.33744" fill="none" stroke="#000000" stroke-width="2.5" stroke-linecap="round"/><g fill="#ff5687" stroke="#000000" stroke-width="0.5"><path d="M122.21782,143.39358c-0.33479,0.60698 -1.3976,1.55983 -2.08429,1.1606c-0.68669,-0.39924 -0.3353,-1.76789 -0.02976,-2.38971c0.78588,-1.59932 3.09547,-0.55016 2.11406,1.22911z" stroke-linecap="butt"/><path d="M120.61075,143.73326l0.58092,-1.02079" stroke-linecap="round"/></g><path d="M116.41015,144.80273c0,0 1.59915,-1.73674 3.41716,-0.71816c1.74827,0.9795 1.27248,3.15803 1.27248,3.15803" fill="none" stroke="#000000" stroke-width="1.5" stroke-linecap="round"/><path d="M126.78362,141.43659v-4.65742" fill="none" stroke="#000000" stroke-width="1.5" stroke-linecap="round"/><g fill="none" stroke="#000000" stroke-width="1.5" stroke-linecap="round"><path d="M125.32403,136.72744h2.91917"/><path d="M125.32402,141.44305h2.91917"/></g><g fill="none" stroke="#000000" stroke-width="1.5" stroke-linecap="round"><path d="M133.89416,136.77917v4.65742"/><g><path d="M135.35375,136.72743h-2.91917"/><path d="M132.43458,141.44305h2.91917"/></g></g><g fill="#ff69e4" stroke="#000000" stroke-width="0.5" stroke-linecap="butt"><path d="M138.00606,119.626c0.78001,-1.24544 2.13945,-1.81212 3.03644,-1.26572c0.89695,0.5464 0.99177,1.99895 0.21176,3.24438c-0.78001,1.24544 -2.13946,1.81212 -3.03643,1.26572c-0.89695,-0.5464 -0.99177,-1.99895 -0.21176,-3.24438z"/><path d="M143.03301,122.68827c0.78001,-1.24544 2.13948,-1.81212 3.03645,-1.26572c0.89695,0.5464 0.99176,1.99895 0.21175,3.24438c-0.78001,1.24544 -2.13945,1.81212 -3.03644,1.26572c-0.89695,-0.5464 -0.99177,-1.99895 -0.21176,-3.24438z"/><path d="M141.23894,121.66952c0.28601,-0.45666 0.89323,-0.59819 1.35627,-0.31614c0.46304,0.28207 0.60654,0.88091 0.32054,1.33758c-0.28601,0.45666 -0.89321,0.59819 -1.35626,0.31614c-0.46304,-0.28207 -0.60655,-0.88092 -0.32055,-1.33758z"/></g><path d="M103.32577,129.29032v33.76931" fill="none" stroke="#000000" stroke-width="2.5" stroke-linecap="round"/><path d="M155.71302,163.05962v-33.76931" fill="none" stroke="#000000" stroke-width="2.5" stroke-linecap="round"/><path d="M155.64191,163.05962h-52.22945" fill="none" stroke="#000000" stroke-width="2.5" stroke-linecap="round"/><path d="M130.23724,164.61584c0,0 6.31926,1.08632 9.52534,5.32054c4.32798,5.7159 4.99161,13.1981 4.99161,13.1981" fill="none" stroke="#000000" stroke-width="2" stroke-linecap="round"/><path d="M140.43065,187.27322c0.51565,-3.89756 4.50764,-3.80842 4.50764,-3.80842c0,0 3.94624,1.46622 3.22705,5.3239c-0.46605,2.4998 -2.54727,4.66169 -4.79556,4.22118c-2.24829,-0.44052 -3.27269,-3.21534 -2.93912,-5.73666z" fill="#ffffff" stroke="#000000" stroke-width="1" stroke-linecap="butt"/><path d="M119.34954,184.37939c0,0 0.49771,-7.9852 3.7437,-14.08537c2.40455,-4.51888 7.14401,-5.67822 7.14401,-5.67822" data-paper-data="{&quot;index&quot;:null}" fill="none" stroke="#000000" stroke-width="2" stroke-linecap="round"/><path d="M115.8447,190.03197c-0.54745,-3.89334 3.3264,-4.84816 3.3264,-4.84816c0,0 4.19887,0.38521 4.53934,4.29316c0.22062,2.53237 -1.20706,5.15996 -3.49345,5.32129c-2.28638,0.16133 -4.01815,-2.2477 -4.37229,-4.76629z" fill="#ffffff" stroke="#000000" stroke-width="1" stroke-linecap="butt"/><g data-paper-data="{&quot;index&quot;:null}"><g fill="none" stroke="#ff0000" stroke-width="8" stroke-linecap="round"><path d="M126.91806,196.39107l4.3139,-8.48123" data-paper-data="{&quot;index&quot;:null}"/><path d="M131.23196,187.90986l4.3139,8.48122" data-paper-data="{&quot;index&quot;:null}"/></g><path d="M128.61432,193.53153c0.76254,0 1.38068,0.60963 1.38068,1.36166c0,0.75203 -0.61815,1.36167 -1.38068,1.36167c-0.76253,0 -1.38069,-0.60964 -1.38069,-1.36167c0,-0.75203 0.61816,-1.36166 1.38069,-1.36166z" fill="#000000" stroke="none" stroke-width="0.5" stroke-linecap="butt"/><path d="M133.8215,193.53153c0.76254,0 1.38068,0.60965 1.38068,1.36166c0,0.75202 -0.61815,1.36167 -1.38068,1.36167c-0.76254,0 -1.38069,-0.60965 -1.38069,-1.36167c0,-0.75202 0.61815,-1.36166 1.38069,-1.36166z" fill="#000000" stroke="none" stroke-width="0.5" stroke-linecap="butt"/><path d="M136.58287,192.40335v1.71181h-10.25653v-1.71181z" fill="#ff0000" stroke="none" stroke-width="NaN" stroke-linecap="butt"/><path d="M129.90177,191.10862h2.67002" fill="none" stroke="#000000" stroke-width="0.5" stroke-linecap="round"/><path d="M129.90176,191.10862c0,0 -0.0809,-1.53871 1.31899,-1.52726c1.35495,0.01108 1.35103,1.52727 1.35103,1.52727" fill="none" stroke="#000000" stroke-width="0.5" stroke-linecap="round"/></g><path d="M210.72943,127.02064c0,-14.1381 11.62132,-25.59931 25.95693,-25.59931c14.33561,0 25.95693,11.46121 25.95693,25.59931c0,14.1381 -11.62132,25.59931 -25.95693,25.59931c-14.33561,0 -25.95693,-11.4612 -25.95693,-25.59931z" fill="none" stroke="#000000" stroke-width="3" stroke-linecap="butt"/><path d="M213.3808,129.16824c-0.1396,1.24579 -1.30604,2.14091 -2.60533,1.9993c-1.2993,-0.14162 -2.2394,-1.26631 -2.0998,-2.51211c0.1396,-1.2458 1.30603,-2.14092 2.60532,-1.99932c1.2993,0.14162 2.23941,1.26631 2.09981,2.51212z" fill="#662300" stroke="#000000" stroke-width="0.5" stroke-linecap="butt"/><path d="M214.86459,126.31603c1.01056,0.11014 1.73924,1.00736 1.62756,2.00399c-0.11168,0.99663 -1.02142,1.71528 -2.03198,1.60514c-1.01056,-0.11014 -1.73925,-1.00737 -1.62757,-2.004c0.11168,-0.99663 1.02143,-1.71527 2.03199,-1.60513z" fill="#662300" stroke="#000000" stroke-width="0.5" stroke-linecap="butt"/><path d="M211.71056,121.40577c1.61688,0.17622 2.77825,1.65217 2.59399,3.29662c-0.18427,1.64445 -1.64439,2.83468 -3.26129,2.65846c-1.61688,-0.17622 -2.77825,-1.65216 -2.59399,-3.29661c0.18427,-1.64445 1.64439,-2.83468 3.26129,-2.65846z" fill="#662300" stroke="#000000" stroke-width="0.5" stroke-linecap="butt"/><path d="M218.70515,123.44673c0.12285,-1.09629 1.04164,-1.89574 2.0522,-1.78561c1.01057,0.11014 1.73019,1.08816 1.60735,2.18446c-0.12285,1.09629 -1.04165,1.89573 -2.05221,1.78559c-1.01057,-0.11014 -1.73018,-1.08814 -1.60734,-2.18445z" fill="#662300" stroke="#000000" stroke-width="0.5" stroke-linecap="butt"/><path d="M217.2105,122.73583c1.26321,0.13768 2.15142,1.46119 1.9839,2.95613c-0.16752,1.49496 -1.32733,2.59524 -2.59053,2.45757c-1.26321,-0.13768 -2.15143,-1.46119 -1.98391,-2.95613c0.16752,-1.49496 1.32734,-2.59525 2.59054,-2.45757z" fill="#662300" stroke="#000000" stroke-width="0.5" stroke-linecap="butt"/><path d="M215.56074,117.62417c1.76846,0.19275 3.03915,1.80328 2.83812,3.59721c-0.20102,1.79394 -1.79761,3.09197 -3.56608,2.89923c-1.76847,-0.19275 -3.03916,-1.80328 -2.83813,-3.59722c0.20102,-1.79394 1.79762,-3.09197 3.56609,-2.89922z" fill="#662300" stroke="#000000" stroke-width="0.5" stroke-linecap="butt"/><path d="M219.99165,116.09781c2.07164,0.22579 3.56093,2.10547 3.32641,4.19842c-0.23453,2.09293 -2.10404,3.60656 -4.1757,3.38078c-2.07164,-0.22579 -3.56092,-2.10547 -3.3264,-4.19842c0.23453,-2.09293 2.10403,-3.60656 4.17569,-3.38077z" fill="#662300" stroke="#000000" stroke-width="0.5" stroke-linecap="butt"/><path d="M216.08378,125.35294c-0.14518,1.29562 -1.0821,2.25664 -2.09265,2.14651c-1.01057,-0.11014 -1.71208,-1.24974 -1.5669,-2.54536c0.14518,-1.29562 1.0821,-2.25666 2.09265,-2.14652c1.01057,0.11014 1.71208,1.24974 1.5669,2.54537z" fill="#662300" stroke="#000000" stroke-width="0.5" stroke-linecap="butt"/><path d="M220.80791,121.20995c0.1731,-1.54478 1.68479,-2.64763 3.37647,-2.46326c1.69168,0.18437 2.92272,1.58613 2.74963,3.13093c-0.1731,1.54478 -1.6848,2.64761 -3.37647,2.46324c-1.69168,-0.18437 -2.92272,-1.58613 -2.74963,-3.13091z" fill="#662300" stroke="#000000" stroke-width="0.5" stroke-linecap="butt"/><path d="M228.83455,121.4455c-0.11168,0.99663 -1.02144,1.71528 -2.032,1.60514c-1.01057,-0.11014 -1.73924,-1.00737 -1.62756,-2.004c0.11168,-0.99663 1.02143,-1.71527 2.03199,-1.60513c1.01057,0.11014 1.73924,1.00736 1.62756,2.00399z" data-paper-data="{&quot;index&quot;:null}" fill="#662300" stroke="#000000" stroke-width="0.5" stroke-linecap="butt"/><path d="M222.04217,117.59994c-1.01057,-0.11014 -1.73019,-1.08814 -1.60735,-2.18445c0.12285,-1.09629 1.04165,-1.89574 2.05221,-1.7856c1.01057,0.11014 1.73018,1.08816 1.60734,2.18446c-0.12285,1.09629 -1.04164,1.89573 -2.0522,1.7856z" data-paper-data="{&quot;index&quot;:null}" fill="#662300" stroke="#000000" stroke-width="0.5" stroke-linecap="butt"/><path d="M227.69426,118.39864c-0.16752,1.49496 -1.32734,2.59525 -2.59055,2.45757c-1.26321,-0.13768 -2.15142,-1.46119 -1.9839,-2.95614c0.16752,-1.49496 1.32733,-2.59525 2.59053,-2.45757c1.26321,0.13768 2.15143,1.46119 1.98392,2.95614z" data-paper-data="{&quot;index&quot;:null}" fill="#662300" stroke="#000000" stroke-width="0.5" stroke-linecap="butt"/><path d="M231.29019,114.40669c-0.20102,1.79394 -1.79762,3.09198 -3.56609,2.89923c-1.76847,-0.19275 -3.03915,-1.80328 -2.83812,-3.59722c0.20102,-1.79394 1.79763,-3.09197 3.56609,-2.89923c1.76847,0.19275 3.03916,1.80328 2.83813,3.59721z" data-paper-data="{&quot;index&quot;:null}" fill="#662300" stroke="#000000" stroke-width="0.5" stroke-linecap="butt"/><path d="M227.79241,112.56416c-0.23453,2.09293 -2.10403,3.60656 -4.17568,3.38078c-2.07165,-0.22579 -3.56092,-2.10547 -3.3264,-4.19842c0.23453,-2.09293 2.10404,-3.60655 4.17569,-3.38077c2.07165,0.22579 3.56091,2.10547 3.32639,4.19842z" data-paper-data="{&quot;index&quot;:null}" fill="#662300" stroke="#000000" stroke-width="0.5" stroke-linecap="butt"/><path d="M228.3231,116.09258c1.01057,0.11014 1.71207,1.24974 1.56689,2.54537c-0.14518,1.29562 -1.08209,2.25664 -2.09265,2.1465c-1.01057,-0.11014 -1.71209,-1.24974 -1.5669,-2.54536c0.14518,-1.29562 1.0821,-2.25665 2.09266,-2.14652z" data-paper-data="{&quot;index&quot;:null}" fill="#662300" stroke="#000000" stroke-width="0.5" stroke-linecap="butt"/><path d="M219.16112,115.642c-1.69168,-0.18437 -2.92272,-1.58613 -2.74962,-3.13092c0.1731,-1.54478 1.6848,-2.64762 3.37648,-2.46325c1.69168,0.18437 2.92271,1.58613 2.74962,3.13092c-0.1731,1.54478 -1.68479,2.64761 -3.37647,2.46324z" data-paper-data="{&quot;index&quot;:null}" fill="#662300" stroke="#000000" stroke-width="0.5" stroke-linecap="butt"/><path d="M220.22568,116.48869c-0.17869,1.59462 -1.8391,2.72213 -3.70863,2.51837c-1.86954,-0.20376 -3.24023,-1.66163 -3.06155,-3.25625c0.17869,-1.59462 1.83909,-2.72214 3.70862,-2.51838c1.86954,0.20376 3.24024,1.66164 3.06155,3.25626z" fill="#662300" stroke="#000000" stroke-width="0.5" stroke-linecap="butt"/><path d="M225.30268,107.54366c-0.22335,1.99327 -2.0019,3.43502 -3.9725,3.22025c-1.9706,-0.21478 -3.387,-2.00474 -3.16364,-3.99801c0.22335,-1.99327 2.00189,-3.43503 3.97249,-3.22025c1.9706,0.21478 3.38701,2.00474 3.16365,3.99801z" fill="#662300" stroke="#000000" stroke-width="0.5" stroke-linecap="butt"/><path d="M219.63136,108.56949c-0.22335,1.99327 -1.96093,3.43949 -3.88101,3.23022c-1.92006,-0.20926 -3.29551,-1.99478 -3.07216,-3.98804c0.22335,-1.99327 1.96093,-3.43949 3.881,-3.23022c1.92006,0.20926 3.29552,1.99478 3.07217,3.98804z" fill="#662300" stroke="#000000" stroke-width="0.5" stroke-linecap="butt"/><path d="M217.20407,112.04947c-0.1731,1.54479 -1.71019,2.64485 -3.4332,2.45705c-1.723,-0.18779 -2.97944,-1.59232 -2.80634,-3.1371c0.1731,-1.54479 1.71019,-2.64484 3.4332,-2.45705c1.723,0.18779 2.97944,1.59232 2.80634,3.1371z" fill="#662300" stroke="#000000" stroke-width="0.5" stroke-linecap="butt"/><path d="M213.99432,115.90083c-0.12285,1.09629 -1.12357,1.88681 -2.23518,1.76566c-1.11161,-0.12116 -1.91317,-1.10809 -1.79032,-2.20438c0.12285,-1.09629 1.12357,-1.88681 2.23518,-1.76566c1.11161,0.12116 1.91317,1.10809 1.79032,2.20438z" fill="#662300" stroke="#000000" stroke-width="0.5" stroke-linecap="butt"/><path d="M212.62248,116.57327c1.71794,0.18724 2.97482,1.55093 2.8073,3.04588c-0.16752,1.49496 -1.69598,2.55506 -3.41393,2.36782c-1.71794,-0.18724 -2.97482,-1.55092 -2.8073,-3.04587c0.16752,-1.49496 1.69598,-2.55507 3.41393,-2.36783z" fill="#662300" stroke="#000000" stroke-width="0.5" stroke-linecap="butt"/><path d="M228.01455,104.00335c1.86953,0.20376 3.19043,2.10599 2.95033,4.24876c-0.2401,2.14276 -1.9503,3.71464 -3.81984,3.51089c-1.86953,-0.20376 -3.19044,-2.10599 -2.95033,-4.24876c0.2401,-2.14276 1.95031,-3.71464 3.81985,-3.51089z" fill="#662300" stroke="#000000" stroke-width="0.5" stroke-linecap="butt"/><path d="M229.31774,102.86674c-0.20102,1.79394 -1.87333,3.08372 -3.73522,2.88079c-1.86189,-0.20292 -3.20826,-1.8217 -3.00725,-3.61565c0.20102,-1.79394 1.87333,-3.08372 3.73521,-2.88079c1.86189,0.20292 3.20827,1.8217 3.00725,3.61565z" fill="#662300" stroke="#000000" stroke-width="0.5" stroke-linecap="butt"/><path d="M231.98607,99.13903c2.02112,0.22028 3.47849,2.01471 3.25514,4.00798c-0.22335,1.99327 -2.04286,3.43056 -4.06398,3.21028c-2.02112,-0.22028 -3.4785,-2.01471 -3.25514,-4.00798c0.22335,-1.99327 2.04287,-3.43056 4.06399,-3.21028z" fill="#662300" stroke="#000000" stroke-width="0.5" stroke-linecap="butt"/><path d="M228.67816,108.82484c0.25687,-2.29226 2.26737,-3.95407 4.4906,-3.71177c2.22324,0.24231 3.8173,2.29698 3.56043,4.58924c-0.25687,2.29226 -2.26738,3.95408 -4.4906,3.71178c-2.22324,-0.24231 -3.81729,-2.29699 -3.56042,-4.58925z" fill="#662300" stroke="#000000" stroke-width="0.5" stroke-linecap="butt"/><path d="M238.00312,98.33354c2.32429,0.25333 4.00027,2.31694 3.7434,4.6092c-0.25687,2.29225 -2.34929,3.94515 -4.67357,3.69182c-2.32429,-0.25333 -4.00028,-2.31692 -3.74341,-4.60918c0.25687,-2.29226 2.3493,-3.94516 4.67359,-3.69183z" fill="#662300" stroke="#000000" stroke-width="0.5" stroke-linecap="butt"/><path d="M230.8263,114.44746c0.12842,-1.14612 1.50233,-1.93687 3.0687,-1.76615c1.56637,0.17072 2.73204,1.23825 2.60362,2.38437c-0.12842,1.14612 -1.50232,1.93686 -3.0687,1.76614c-1.56637,-0.17072 -2.73205,-1.23823 -2.60362,-2.38436z" fill="#662300" stroke="#000000" stroke-width="0.5" stroke-linecap="butt"/><path d="M228.15537,118.44883c0.21219,-1.89361 1.73591,-3.28137 3.40334,-3.09963c1.66743,0.18174 2.84713,1.86413 2.63493,3.75774c-0.21219,1.89361 -1.7359,3.28135 -3.40333,3.09962c-1.66743,-0.18174 -2.84713,-1.86411 -2.63494,-3.75772z" fill="#662300" stroke="#000000" stroke-width="0.5" stroke-linecap="butt"/><path d="M235.50802,107.37725c0.15635,-1.3953 1.47095,-2.39692 2.93627,-2.23723c1.46531,0.15971 2.52644,1.42026 2.37009,2.81555c-0.15635,1.39528 -1.47097,2.39693 -2.93628,2.23723c-1.46531,-0.15971 -2.52643,-1.42026 -2.37008,-2.81556z" fill="#662300" stroke="#000000" stroke-width="0.5" stroke-linecap="butt"/><path d="M234.31178,111.44127c0.20144,-1.79767 1.88028,-3.08982 3.74982,-2.88605c1.86954,0.20376 3.2218,1.82626 3.02036,3.62393c-0.20144,1.79767 -1.8803,3.08982 -3.74984,2.88605c-1.86954,-0.20376 -3.22178,-1.82626 -3.02035,-3.62392z" fill="#662300" stroke="#000000" stroke-width="0.5" stroke-linecap="butt"/><path d="M245.02944,114.74067c0.86172,0.53213 1.12287,1.65245 0.58331,2.50229c-0.53956,0.84985 -1.67553,1.10742 -2.53726,0.57529c-0.86172,-0.53213 -1.12288,-1.65247 -0.5833,-2.50232c0.53956,-0.84985 1.67553,-1.1074 2.53726,-0.57526z" data-paper-data="{&quot;index&quot;:null}" fill="#662300" stroke="#000000" stroke-width="0.5" stroke-linecap="butt"/><path d="M249.75255,113.80154c0.59353,-0.93483 1.77323,-1.26131 2.63496,-0.72917c0.86172,0.53213 1.07913,1.72137 0.4856,2.6562c-0.59353,0.93483 -1.77325,1.26128 -2.63496,0.72915c-0.86172,-0.53213 -1.07913,-1.72135 -0.4856,-2.65618z" data-paper-data="{&quot;index&quot;:null}" fill="#662300" stroke="#000000" stroke-width="0.5" stroke-linecap="butt"/><path d="M248.7194,112.52088c1.07716,0.66517 1.29424,2.2378 0.48489,3.51257c-0.80936,1.27477 -2.33866,1.76897 -3.41582,1.10379c-1.07716,-0.66517 -1.29425,-2.23781 -0.48489,-3.51259c0.80936,-1.27477 2.33866,-1.76896 3.41582,-1.10377z" data-paper-data="{&quot;index&quot;:null}" fill="#662300" stroke="#000000" stroke-width="0.5" stroke-linecap="butt"/><path d="M249.48489,107.20996c1.508,0.93124 1.94316,2.92624 0.97194,4.45598c-0.97122,1.52971 -2.98103,2.0149 -4.48905,1.08366c-1.50801,-0.93124 -1.94317,-2.92625 -0.97195,-4.45598c0.97122,-1.52971 2.98104,-2.0149 4.48906,-1.08366z" data-paper-data="{&quot;index&quot;:null}" fill="#662300" stroke="#000000" stroke-width="0.5" stroke-linecap="butt"/><path d="M254.14822,107.73336c1.76653,1.09088 2.28003,3.42198 1.14693,5.20667c-1.13311,1.78468 -3.4837,2.34713 -5.25024,1.25624c-1.76653,-1.09088 -2.28003,-3.42198 -1.14692,-5.20666c1.13311,-1.78468 3.4837,-2.34713 5.25024,-1.25625z" data-paper-data="{&quot;index&quot;:null}" fill="#662300" stroke="#000000" stroke-width="0.5" stroke-linecap="butt"/><path d="M245.65014,113.56391c-0.95818,1.50916 -2.68914,2.1433 -3.86626,1.41639c-1.17711,-0.72689 -1.3546,-2.53958 -0.39642,-4.04874c0.95818,-1.50916 2.68915,-2.14333 3.86626,-1.41643c1.17711,0.72689 1.3546,2.53959 0.39642,4.04875z" data-paper-data="{&quot;index&quot;:null}" fill="#662300" stroke="#000000" stroke-width="0.5" stroke-linecap="butt"/><path d="M259.00597,105.37792c1.68036,1.03767 2.16773,3.25673 1.0886,4.95643c-1.07914,1.6997 -3.31614,2.23638 -4.99652,1.19872c-1.68036,-1.03767 -2.16774,-3.25673 -1.0886,-4.95642c1.07914,-1.6997 3.31614,-2.23639 4.99652,-1.19872z" data-paper-data="{&quot;index&quot;:null}" fill="#662300" stroke="#000000" stroke-width="0.5" stroke-linecap="butt"/><path d="M261.5241,115.03857c-1.16008,1.82718 -3.39284,2.51033 -4.98702,1.52589c-1.59419,-0.98445 -1.9461,-3.26372 -0.78603,-5.09091c1.16008,-1.82718 3.39285,-2.51033 4.98702,-1.52589c1.59418,0.98445 1.94609,3.26372 0.78603,5.09091z" data-paper-data="{&quot;index&quot;:null}" fill="#662300" stroke="#000000" stroke-width="0.5" stroke-linecap="butt"/><path d="M244.87678,106.93482c-1.89579,-1.17069 -2.42659,-3.7043 -1.18558,-5.65896c1.24102,-1.95464 3.78389,-2.59017 5.67969,-1.41948c1.89579,1.17069 2.42659,3.70429 1.18558,5.65894c-1.24102,1.95464 -3.78389,2.59018 -5.67968,1.41949z" data-paper-data="{&quot;index&quot;:null}" fill="#662300" stroke="#000000" stroke-width="0.5" stroke-linecap="butt"/><path d="M241.79198,108.88562c-1.33567,-0.82481 -1.91542,-2.28574 -1.2949,-3.26306c0.62051,-0.97732 2.20629,-1.10096 3.54196,-0.27615c1.33567,0.82481 1.91543,2.28574 1.29491,3.26306c-0.62051,0.97732 -2.2063,1.10097 -3.54198,0.27616z" data-paper-data="{&quot;index&quot;:null}" fill="#662300" stroke="#000000" stroke-width="0.5" stroke-linecap="butt"/><path d="M250.42061,108.54286c-1.42184,-0.87802 -1.74338,-2.89878 -0.71822,-4.51351c1.02519,-1.61472 3.00888,-2.21192 4.43073,-1.33389c1.42184,0.87802 1.74339,2.89878 0.71822,4.51351c-1.02519,1.61472 -3.00888,2.21192 -4.43074,1.33389z" data-paper-data="{&quot;index&quot;:null}" fill="#662300" stroke="#000000" stroke-width="0.5" stroke-linecap="butt"/><path d="M239.84377,105.11205c-1.59419,-0.98445 -2.09757,-3.02518 -1.1243,-4.5581c0.97324,-1.53292 3.05457,-1.97752 4.64874,-0.99307c1.59419,0.98445 2.09755,3.02518 1.1243,4.5581c-0.97324,1.53292 -3.05457,1.97753 -4.64875,0.99308z" data-paper-data="{&quot;index&quot;:null}" fill="#662300" stroke="#000000" stroke-width="0.5" stroke-linecap="butt"/><path d="M231.86548,118.39659c0.2066,-1.84378 2.05349,-3.15542 4.12514,-2.92963c2.07164,0.22579 3.58356,1.9035 3.37695,3.74727c-0.2066,1.84378 -2.05349,3.15542 -4.12514,2.92963c-2.07164,-0.22579 -3.58355,-1.9035 -3.37695,-3.74727z" fill="#662300" stroke="#000000" stroke-width="0.5" stroke-linecap="butt"/><path d="M236.16398,116.39916c0.16752,-1.49496 1.94176,-2.52829 3.96287,-2.308c2.02112,0.22028 3.52375,1.61075 3.35623,3.1057c-0.16752,1.49496 -1.94176,2.52829 -3.96287,2.308c-2.02112,-0.22028 -3.52375,-1.61075 -3.35623,-3.1057z" fill="#662300" stroke="#000000" stroke-width="0.5" stroke-linecap="butt"/><path d="M255.08097,116.99957c-1.46531,-0.15971 -2.5038,-1.62225 -2.31954,-3.2667c0.18427,-1.64445 1.52152,-2.84807 2.98683,-2.68838c1.46531,0.15971 2.50381,1.62225 2.31954,3.2667c-0.18427,1.64445 -1.52152,2.84807 -2.98683,2.68838z" fill="#662300" stroke="#000000" stroke-width="0.5" stroke-linecap="butt"/><path d="M243.11219,108.93672c-0.17869,1.59462 -1.55237,2.75338 -3.06821,2.58817c-1.51584,-0.16521 -2.59982,-1.59183 -2.42113,-3.18645c0.17869,-1.59462 1.55237,-2.75339 3.06821,-2.58818c1.51584,0.16521 2.59982,1.59183 2.42113,3.18645z" fill="#662300" stroke="#000000" stroke-width="0.5" stroke-linecap="butt"/><path d="M263.09706,116.59098c0,2.0054 -1.40116,3.6311 -3.12956,3.6311c-1.72841,0 -3.12955,-1.6257 -3.12955,-3.6311c0,-2.0054 1.40115,-3.63111 3.12955,-3.63111c1.72841,0 3.12956,1.6257 3.12956,3.63111z" fill="#662300" stroke="#000000" stroke-width="0.5" stroke-linecap="butt"/><path d="M254.44476,119.49587c-2.03342,0 -3.68183,-1.38184 -3.68183,-3.08644c0,-1.70458 1.64841,-3.08644 3.68183,-3.08644c2.03342,0 3.68183,1.38184 3.68183,3.08644c0,1.70458 -1.64841,3.08644 -3.68183,3.08644z" fill="#662300" stroke="#000000" stroke-width="0.5" stroke-linecap="butt"/><path d="M248.55381,119.13274c-1.62673,0 -2.94547,-1.17864 -2.94547,-2.63256c0,-1.45392 1.31874,-2.63255 2.94547,-2.63255c1.62673,0 2.94548,1.17863 2.94548,2.63255c0,1.45392 -1.31874,2.63256 -2.94548,2.63256z" fill="#662300" stroke="#000000" stroke-width="0.5" stroke-linecap="butt"/><path d="M247.99467,132.59295l-1.69638,-7.84443" fill="none" stroke="#000000" stroke-width="1.5" stroke-linecap="round"/><path d="M238.40766,126.36984l1.69638,7.84442" fill="none" stroke="#000000" stroke-width="1.5" stroke-linecap="round"/><g data-paper-data="{&quot;index&quot;:null}" fill="none" stroke="#000000" stroke-width="1.5" stroke-linecap="round"><path d="M237.18514,142.78996l-8.51781,-3.80692"/><path d="M237.18511,142.78994c0,0 -2.2101,4.84248 -6.54887,2.94593c-4.48266,-1.95944 -1.96895,-6.75286 -1.96895,-6.75286"/></g><path d="M248.6082,143.73693c0,0 -0.49771,8.27862 -3.7437,14.60292c-2.40455,4.68492 -7.14401,5.88687 -7.14401,5.88687" data-paper-data="{&quot;index&quot;:null}" fill="none" stroke="#000000" stroke-width="2" stroke-linecap="round"/><path d="M246.94028,139.22764c0.73433,-2.43634 1.74931,-4.36642 3.93697,-3.69141c2.18766,0.67502 2.53724,3.32407 1.93229,5.79577c-0.54153,2.21256 -4.16875,3.84411 -4.16875,3.84411c0,0 -2.8337,-2.18871 -1.70051,-5.94848z" fill="#ffffff" stroke="#000000" stroke-width="1" stroke-linecap="butt"/><path d="M228.46581,176.88296c-0.57281,1.83629 -0.46022,4.94738 -0.46022,4.94738h-2.3785c0,0 0.05172,-3.94187 -0.36819,-4.94738c-0.04089,-0.09794 3.23062,-0.07602 3.20691,0z" data-paper-data="{&quot;index&quot;:null}" fill="#843900" stroke="#000000" stroke-width="0.5" stroke-linecap="butt"/><path d="M226.86971,194.31224c0,0 -2.62331,-4.7832 -2.62331,-7.7161c0,-2.93291 1.1745,-5.08355 2.62331,-5.08355c1.44881,0 2.6233,2.15065 2.6233,5.08355c0,2.93291 -2.6233,7.7161 -2.6233,7.7161z" data-paper-data="{&quot;index&quot;:null}" fill="#11ff00" stroke="#000000" stroke-width="0.5" stroke-linecap="butt"/><path d="M228.11232,187.64008c0.30501,0 0.55227,0.24385 0.55227,0.54466c0,0.30081 -0.24726,0.54467 -0.55227,0.54467c-0.30501,0 -0.55228,-0.24386 -0.55228,-0.54467c0,-0.30081 0.24726,-0.54466 0.55228,-0.54466z" data-paper-data="{&quot;index&quot;:null}" fill="#000000" stroke="none" stroke-width="0.5" stroke-linecap="butt"/><path d="M226.86971,187.59472c0.30501,0 0.55227,0.24386 0.55227,0.54467c0,0.30081 -0.24726,0.54467 -0.55227,0.54467c-0.30501,0 -0.55228,-0.24385 -0.55228,-0.54467c0,-0.30081 0.24726,-0.54467 0.55228,-0.54467z" data-paper-data="{&quot;index&quot;:null}" fill="#000000" stroke="none" stroke-width="0.5" stroke-linecap="butt"/><path d="M246.88968,182.87425c-0.53377,0 -0.96648,-0.45723 -0.96648,-1.02124c0,-0.56402 0.43271,-1.02125 0.96648,-1.02125c0.53377,0 0.96648,0.45723 0.96648,1.02125c0,0.56402 -0.4327,1.02124 -0.96648,1.02124z" data-paper-data="{&quot;index&quot;:null}" fill="none" stroke="#000000" stroke-width="0.5" stroke-linecap="butt"/><path d="M243.66807,182.87425c-0.58462,0 -1.05854,-0.47754 -1.05854,-1.06663c0,-0.58909 0.47392,-1.06663 1.05854,-1.06663c0.58462,0 1.05853,0.47754 1.05853,1.06663c0,0.58909 -0.47392,1.06663 -1.05853,1.06663z" data-paper-data="{&quot;index&quot;:null}" fill="none" stroke="#000000" stroke-width="0.5" stroke-linecap="butt"/><path d="M243.62205,180.69562v-2.49639l0.78239,-1.54323" data-paper-data="{&quot;index&quot;:null}" fill="none" stroke="#000000" stroke-width="0.5" stroke-linecap="round"/><path d="M243.62205,178.42617l-0.78239,-1.90633" data-paper-data="{&quot;index&quot;:null}" fill="none" stroke="#000000" stroke-width="0.5" stroke-linecap="round"/><path d="M244.26637,178.97084l-0.5983,0.817l-1.42672,0.31772" data-paper-data="{&quot;index&quot;:null}" fill="none" stroke="#000000" stroke-width="0.5" stroke-linecap="round"/><path d="M246.84366,180.87717v-2.40561l1.01251,-2.08789" data-paper-data="{&quot;index&quot;:null}" fill="none" stroke="#000000" stroke-width="0.5" stroke-linecap="round"/><path d="M246.10729,176.56524l0.64432,1.90633" data-paper-data="{&quot;index&quot;:null}" fill="none" stroke="#000000" stroke-width="0.5" stroke-linecap="round"/><path d="M245.9232,179.83323l1.84092,0.04539" data-paper-data="{&quot;index&quot;:null}" fill="none" stroke="#000000" stroke-width="0.5" stroke-linecap="round"/><path d="M239.9594,71.97562l2.72889,-2.6913" fill="none" stroke="#000000" stroke-width="0.5" stroke-linecap="round"/><path d="M227.41952,71.97562l-2.72889,-2.6913" data-paper-data="{&quot;index&quot;:null}" fill="none" stroke="#000000" stroke-width="0.5" stroke-linecap="round"/><path d="M224.69063,87.16219l2.72889,-2.69129" data-paper-data="{&quot;index&quot;:null}" fill="none" stroke="#000000" stroke-width="0.5" stroke-linecap="round"/><path d="M242.68829,87.80297l-2.72889,-2.69129" data-paper-data="{&quot;index&quot;:null}" fill="none" stroke="#000000" stroke-width="0.5" stroke-linecap="round"/><path d="M242.49087,78.3104h3.85923" data-paper-data="{&quot;index&quot;:null}" fill="none" stroke="#000000" stroke-width="0.5" stroke-linecap="round"/><path d="M221.15096,78.3104h3.85924" data-paper-data="{&quot;index&quot;:null}" fill="none" stroke="#000000" stroke-width="0.5" stroke-linecap="round"/><path d="M233.86848,65.65802l-0.0228,3.806" fill="none" stroke="#000000" stroke-width="0.5" stroke-linecap="round"/><path d="M355.10334,132.01177c0,0 -8.32257,-1.21057 -15.43222,-5.35233c-5.87306,-3.42139 -10.37477,-10.50872 -10.37477,-10.50872" fill="none" stroke="#000000" stroke-width="2.5" stroke-linecap="round"/><path d="M331.99437,120.51124c0,0 -4.13492,4.67527 -9.63692,7.61303c-5.69854,3.0427 -14.48678,3.41318 -14.48678,3.41318" fill="none" stroke="#000000" stroke-width="2.5" stroke-linecap="round"/><path d="M336.22592,140.60435v-7.62533" fill="none" stroke="#000000" stroke-width="1.5" stroke-linecap="round"/><path d="M328.63214,140.60436v-7.62533" fill="none" stroke="#000000" stroke-width="1.5" stroke-linecap="round"/><path d="M325.0175,146.79994c0,0 -2.53955,0.85678 -4.31151,-0.81081c-1.58718,-1.49372 -0.58993,-4.0231 -0.58993,-4.0231" fill="none" stroke="#000000" stroke-width="1" stroke-linecap="round"/><path d="M335.96126,193.42953l-4.4182,4.73623l-4.56226,-4.6415z" fill="#ff0000" stroke="none" stroke-width="0" stroke-linecap="butt"/><path d="M336.4325,182.03594v11.16566h-9.38867v-11.16566z" fill="#ff9400" stroke="#000000" stroke-width="1" stroke-linecap="butt"/><path d="M338.77967,191.29526l-7.17957,7.21683l-7.45571,-7.35299" fill="none" stroke="#000000" stroke-width="1" stroke-linecap="round"/><path d="M330.35747,189.38893v1.49783h-1.51876v-1.49783z" fill="#ffffff" stroke="#000000" stroke-width="0.5" stroke-linecap="butt"/><path d="M334.24741,189.38893v1.49783h-1.51875v-1.49783z" fill="#ffffff" stroke="#000000" stroke-width="0.5" stroke-linecap="butt"/><path d="M332.88773,182.39412v2.93646h-1.92096v-2.93646z" fill="#0084ff" stroke="#000000" stroke-width="0.5" stroke-linecap="butt"/><path d="M324.50131,185.04206c0,0 -7.37485,-7.81091 -5.30441,-13.86483c2.53936,-7.42501 11.77391,-7.94125 11.77391,-7.94125" data-paper-data="{&quot;index&quot;:null}" fill="none" stroke="#000000" stroke-width="2" stroke-linecap="round"/><path d="M329.15218,186.43109c1.44977,2.10141 2.3244,4.09719 0.41102,5.34207c-1.91338,1.24488 -4.21553,-0.16278 -5.77488,-2.18768c-1.39585,-1.8126 -0.38445,-5.61572 -0.38445,-5.61572c0,0 3.51099,-0.78155 5.74831,2.46132z" fill="#ffffff" stroke="#000000" stroke-width="1" stroke-linecap="butt"/><path d="M197.73491,206.96506l-1.07242,2.80275" fill="none" stroke="#dcdcdc" stroke-width="4" stroke-linecap="round"/><path d="M233.71092,86.31509v-2.83051" fill="none" stroke="#cecece" stroke-width="5" stroke-linecap="round"/><path d="M228.26417,79.00822c0,-3.00811 2.47262,-5.44667 5.52275,-5.44667c3.05013,0 5.52275,2.43856 5.52275,5.44667c0,3.00811 -2.47262,5.44666 -5.52275,5.44666c-3.05013,0 -5.52275,-2.43855 -5.52275,-5.44666z" fill="#ffe900" stroke="none" stroke-width="0" stroke-linecap="butt"/><path d="M354.64145,227.0477l-2.29782,-1.95922" fill="none" stroke="#7300ff" stroke-width="4" stroke-linecap="round"/><g fill="none" stroke="#c64901" stroke-width="9" stroke-linecap="round"><path d="M385.29486,247.88078v-8.59171" data-paper-data="{&quot;index&quot;:null}"/><g><path d="M94.70481,247.92334h290.59016" data-paper-data="{&quot;index&quot;:null}"/><g><path d="M94.70492,239.33162v8.59172"/><path d="M94.70492,239.28906h290.59027"/></g></g></g><path d="M96.30001,247.94999v-8.36418h288v8.36418z" fill="#c74900" stroke="none" stroke-width="0" stroke-linecap="butt"/><g><path d="M385.29486,247.88078v-8.59171" data-paper-data="{&quot;index&quot;:null}" fill="#9e3a00" stroke="#9f3a01" stroke-width="9" stroke-linecap="round"/><path d="M94.70481,247.92334h290.59016" data-paper-data="{&quot;index&quot;:null}" fill="#9e3a00" stroke="#9f3a01" stroke-width="9" stroke-linecap="round"/><path d="M94.70492,239.33162v8.59172" fill="#9e3a00" stroke="#9f3a01" stroke-width="9" stroke-linecap="round"/><path d="M96.30001,247.95v-8.36418h288v8.36418z" fill="#9e3a00" stroke="#9f3a01" stroke-width="0" stroke-linecap="butt"/><path d="M94.70492,239.28906h290.59027" fill="none" stroke="#c64901" stroke-width="9" stroke-linecap="round"/></g><path d="M133.82059,231.97874l-5.51891,-6.20716" fill="none" stroke="#8000ff" stroke-width="3.5" stroke-linecap="round"/><path d="M127.01425,226.44359l-1.57115,-3.88509l3.78575,1.77825z" fill="#ffbf3b" stroke="none" stroke-width="0" stroke-linecap="butt"/><path d="M127.03589,226.41718l2.14772,-1.90958" fill="none" stroke="#ffbf3b" stroke-width="0.5" stroke-linecap="round"/><g fill="none" stroke="#febe3b" stroke-width="0.5" stroke-linecap="round"><path d="M125.37374,222.46568l1.56776,4.03543"/><path d="M129.18436,224.50694l-3.82433,-2.02908" data-paper-data="{&quot;index&quot;:null}"/></g><g fill="none" stroke="#000000" stroke-width="0.5" stroke-linecap="round"><path d="M125.37946,222.46059l0.34084,0.87734"/><path d="M126.20792,222.90438l-0.83144,-0.44113" data-paper-data="{&quot;index&quot;:null}"/></g><path d="M125.79494,223.28337l0.39818,-0.35403" fill="none" stroke="#000000" stroke-width="0.5" stroke-linecap="round"/><path d="M171.41385,186.77799l-2.07269,8.04309" fill="none" stroke="#d35ae4" stroke-width="3.5" stroke-linecap="round"/><path d="M170.6171,195.51465l-2.34786,3.47131l-0.63612,-4.13394z" fill="#ffbf3b" stroke="none" stroke-width="0" stroke-linecap="butt"/><path d="M170.58311,195.51143l-2.78296,-0.71716" fill="none" stroke="#ffbf3b" stroke-width="0.5" stroke-linecap="round"/><g fill="none" stroke="#febe3b" stroke-width="0.5" stroke-linecap="round"><path d="M168.23091,199.09531l2.47452,-3.55237"/><path d="M167.79918,194.794l0.44948,4.30588" data-paper-data="{&quot;index&quot;:null}"/></g><g fill="none" stroke="#000000" stroke-width="0.5" stroke-linecap="round"><path d="M168.22349,199.0934l0.53799,-0.77231"/><path d="M168.12963,198.15826l0.09772,0.93613" data-paper-data="{&quot;index&quot;:null}"/></g><path d="M168.67455,198.28958l-0.51595,-0.13296" fill="none" stroke="#000000" stroke-width="0.5" stroke-linecap="round"/><path d="M210.54312,211.13536l7.83404,-2.75956" fill="none" stroke="#2be700" stroke-width="3.5" stroke-linecap="round"/><path d="M218.24231,206.92981l4.19073,0.01589l-3.07862,2.83128z" fill="#ffbf3b" stroke="none" stroke-width="0" stroke-linecap="butt"/><path d="M218.25857,206.95984l0.95482,2.71063" fill="none" stroke="#ffbf3b" stroke-width="0.5" stroke-linecap="round"/><g fill="none" stroke="#febe3b" stroke-width="0.5" stroke-linecap="round"><path d="M222.5452,206.91662l-4.32861,-0.07593"/><path d="M219.21371,209.67141l3.32539,-2.77208" data-paper-data="{&quot;index&quot;:null}"/></g><g fill="none" stroke="#000000" stroke-width="0.5" stroke-linecap="round"><path d="M222.54774,206.92385l-0.94107,-0.01651"/><path d="M221.82345,207.52276l0.72296,-0.60268" data-paper-data="{&quot;index&quot;:null}"/></g><path d="M221.62893,206.99707l0.17702,0.50254" fill="none" stroke="#000000" stroke-width="0.5" stroke-linecap="round"/><path d="M294.57132,191.4569l-3.55524,7.5065" fill="none" stroke="#ff0101" stroke-width="3.5" stroke-linecap="round"/><path d="M292.13797,199.8856l-2.96153,2.9651l0.15652,-4.17966z" fill="#ffbf3b" stroke="none" stroke-width="0" stroke-linecap="butt"/><path d="M292.1052,199.87601l-2.5973,-1.23013" fill="none" stroke="#ffbf3b" stroke-width="0.5" stroke-linecap="round"/><g fill="none" stroke="#febe3b" stroke-width="0.5" stroke-linecap="round"><path d="M289.11814,202.95083l3.10123,-3.02076"/><path d="M289.507,198.64544l-0.3723,4.31324" data-paper-data="{&quot;index&quot;:null}"/></g><g fill="none" stroke="#000000" stroke-width="0.5" stroke-linecap="round"><path d="M289.11122,202.94755l0.67424,-0.65673"/><path d="M289.19576,202.01153l-0.08094,0.93773" data-paper-data="{&quot;index&quot;:null}"/></g><path d="M289.70605,202.24345l-0.48153,-0.22806" fill="none" stroke="#000000" stroke-width="0.5" stroke-linecap="round"/></g></g></svg>