<svg version="1.1" xmlns="http://www.w3.org/2000/svg" xmlns:xlink="http://www.w3.org/1999/xlink" width="440" height="320" viewBox="0,0,220.3005,160.54037"><g transform="translate(-129.84975,-99.22806)"><g data-paper-data="{&quot;isPaintingLayer&quot;:true}" fill-rule="nonzero" stroke-linejoin="miter" stroke-miterlimit="10" stroke-dasharray="" stroke-dashoffset="0" style="mix-blend-mode: normal"><g><path d="M226.59785,197.44908v-3.08334c0,0 5.26047,0.71517 8.00355,0.65047c3.10165,-0.07315 9.66312,-1.06714 9.66312,-1.06714v3.5z" fill="#442700" stroke="none" stroke-width="0" stroke-linecap="butt"/><path d="M244.55618,184.11576v13.66667" fill="none" stroke="#000000" stroke-width="1.5" stroke-linecap="round"/><path d="M221.80619,184.44909c0,0 6.0813,-0.34814 9.00689,-0.96744c3.11729,-0.65988 9.15827,-2.87784 9.15827,-2.87784l7.0015,0.67862c0,0 -2.39228,12.22396 -10.5,13.66667c-11.17557,1.98861 -14.66667,-10.5 -14.66667,-10.5z" fill="#ffffff" stroke="none" stroke-width="0" stroke-linecap="butt"/><path d="M224.8692,227.81787l6.44029,-31.58293" fill="none" stroke="#000000" stroke-width="4" stroke-linecap="round"/><path d="M224.93322,227.9019c0,0 13.77963,-1.54675 18.90201,0.77045c5.57593,2.52237 13.30846,13.80057 13.30846,13.80057" fill="none" stroke="#000000" stroke-width="3.5" stroke-linecap="round"/><path d="M249.90477,194.77308c0,0 -5.73263,8.78482 -8.66889,10.10459c-3.33696,1.49986 -11.618,-1.92265 -11.618,-1.92265" fill="none" stroke="#000000" stroke-width="3.5" stroke-linecap="round"/><path d="M212.10936,213.3491c0,0 3.63793,-10.00825 7.1443,-11.70701c2.79417,-1.35373 11.618,1.92265 11.618,1.92265" data-paper-data="{&quot;index&quot;:null}" fill="none" stroke="#000000" stroke-width="3.5" stroke-linecap="round"/><path d="M249.79049,195.07014c0,0 -1.73905,-2.29883 -1.23927,-4.88633c0.36562,-1.89293 2.14304,-3.22232 4.00224,-2.94174c1.10452,0.16668 2.2321,2.29551 1.89728,4.15173c-0.51299,2.84401 -4.66025,3.67634 -4.66025,3.67634z" fill="#ffffff" stroke="#000000" stroke-width="1.5" stroke-linecap="butt"/><path d="M220.83723,179.23127c1.75258,-7.24887 9.0497,-11.70449 16.29856,-9.95191c7.24887,1.75258 11.7045,9.04971 9.95192,16.29857c-1.75258,7.24887 -9.0497,11.70449 -16.29857,9.95191c-7.24887,-1.75258 -11.70449,-9.04969 -9.95191,-16.29856z" fill="none" stroke="#000000" stroke-width="3.5" stroke-linecap="butt"/><path d="M212.09584,212.6455c0,0 1.54832,2.04673 1.10335,4.35046c-0.32553,1.68535 -1.90802,2.86892 -3.56332,2.61913c-0.98339,-0.1484 -1.98731,-2.04377 -1.6892,-3.69643c0.45675,-2.53211 4.14917,-3.27316 4.14917,-3.27316z" data-paper-data="{&quot;index&quot;:null}" fill="#ffffff" stroke="#000000" stroke-width="1.5" stroke-linecap="butt"/><path d="M257.90996,243.11509c0,0 -2.70435,-2.94119 -2.28125,-6.33657c0.30953,-2.48396 2.3903,-4.40368 4.82318,-4.20141c2.21352,0.03268 1.57462,3.85853 0.38144,6.33641c-1.6532,3.43322 -2.92336,4.20156 -2.92336,4.20156z" fill="#ffffff" stroke="#000000" stroke-width="1.5" stroke-linecap="butt"/><path d="M224.93414,227.07765c0,0 -0.17882,11.21286 -3.29179,15.33009c-2.85417,3.77495 -12.75885,7.53747 -12.75885,7.53747" fill="none" stroke="#000000" stroke-width="3.5" stroke-linecap="round"/><path d="M211.04045,254.74341c0.00456,2.24141 -1.62784,4.18093 -3.8118,4.27502c-0.955,0.10668 -2.35511,-2.23822 -1.87193,-4.59936c0.51355,-2.50955 2.71846,-5.15548 2.71846,-5.15548c0,0 2.95903,2.41599 2.96526,5.47982z" data-paper-data="{&quot;index&quot;:null}" fill="#ffffff" stroke="#000000" stroke-width="1.5" stroke-linecap="butt"/><path d="M220.01453,197.26158l-0.16666,-16.97321c0,0 6.08462,-11.05927 14.41767,-10.98023c11.88326,0.11272 12.24899,12.39689 12.24899,12.39689c0,0 -5.98194,-2.32735 -10.65752,0.12767c-3.66598,1.92491 -9.92582,2.36637 -9.92582,2.36637v13.0625z" fill="#442700" stroke="none" stroke-width="0" stroke-linecap="butt"/><path d="M219.63952,183.61576v14.16667" fill="none" stroke="#000000" stroke-width="1.5" stroke-linecap="round"/><path d="M241.95075,178.58182c0,0 -4.32976,3.07722 -9.62492,4.36646c-5.44471,1.32565 -5.83086,1.10019 -5.83086,1.10019" fill="none" stroke="#000000" stroke-width="1.5" stroke-linecap="round"/><path d="M226.30618,184.11576v13.66667" fill="none" stroke="#000000" stroke-width="1.5" stroke-linecap="round"/><path d="M219.80619,197.78243h24.75001" fill="none" stroke="#000000" stroke-width="1.5" stroke-linecap="round"/><path d="M247.15234,181.56905c0,0 -2.7667,-0.24718 -4.06164,-0.48766c-1.3278,-0.24659 -3.56442,-0.97404 -3.56442,-0.97404" fill="none" stroke="#000000" stroke-width="1.5" stroke-linecap="round"/><path d="M220.57642,184.20836c-0.21805,-1.61523 -0.14528,-3.29745 0.26081,-4.97708v-0.00001c1.75258,-7.24887 9.0497,-11.70449 16.29856,-9.95191c5.89379,1.42496 9.94104,6.51526 10.30624,12.2648" fill="none" stroke="#000000" stroke-width="2" stroke-linecap="butt"/><path d="M220.84785,183.94908c0,0 -0.23037,1.95506 -0.42641,2.87924c-0.19279,0.90888 -0.74026,2.62076 -0.74026,2.62076" fill="none" stroke="#000000" stroke-width="1.5" stroke-linecap="round"/><path d="M240.78237,186.82483v-2.71429" fill="none" stroke="#000000" stroke-width="1" stroke-linecap="round"/><path d="M237.87028,186.82482v-2.71428" fill="none" stroke="#000000" stroke-width="1" stroke-linecap="round"/><path d="M236.88128,190.46208c0,0 -0.98848,0.81639 -2.04327,0.22344c-0.95727,-0.53813 -0.5761,-1.77125 -0.5761,-1.77125" fill="none" stroke="#000000" stroke-width="1" stroke-linecap="round"/></g><g><path d="M331.842,156.18053c-12.72059,-0.27723 -12.95537,-10.82949 -12.95537,-10.82949c0,0 2.695,-0.99518 3.83004,-1.72945c1.20607,-0.78023 3.20621,-2.82243 3.20621,-2.82243l17.8574,5.16881c0,0 -2.71064,10.41367 -11.93828,10.21257z" fill="#ffffff" stroke="none" stroke-width="0" stroke-linecap="butt"/><path d="M318.07563,145.44268c0,0 0.38077,-14.42138 14.27637,-14.96605c11.68303,-0.45794 11.93146,15.7247 11.93146,15.7247l-18.20754,-5.31053z" fill="#4c1a00" stroke="none" stroke-width="0" stroke-linecap="butt"/><path d="M312.52132,185.71757l13.18002,-29.41506" fill="none" stroke="#000000" stroke-width="4" stroke-linecap="round"/><path d="M312.57257,185.29421c0,0 7.08188,11.92132 7.07868,17.54343c-0.00348,6.11991 -7.0988,17.80948 -7.0988,17.80948" fill="none" stroke="#000000" stroke-width="3.5" stroke-linecap="round"/><path d="M312.39813,185.73977c0,0 -10.29241,4.4527 -15.32606,3.31053c-4.61518,-1.04722 -12.1213,-8.52501 -12.1213,-8.52501" fill="none" stroke="#000000" stroke-width="3.5" stroke-linecap="round"/><path d="M344.16721,158.93556c0,0 -7.51222,7.32138 -10.66577,7.96827c-3.58391,0.73517 -10.91801,-4.41267 -10.91801,-4.41267" fill="none" stroke="#000000" stroke-width="3.5" stroke-linecap="round"/><path d="M303.22805,168.81213c0,0 5.73514,-8.9726 9.5278,-9.86489c3.02232,-0.71106 10.91801,4.41267 10.91801,4.41267" data-paper-data="{&quot;index&quot;:null}" fill="none" stroke="#000000" stroke-width="3.5" stroke-linecap="round"/><path d="M325.8109,140.21063c0,0 -0.92966,1.96352 -3.08198,3.3133c-2.05257,1.28725 -3.75277,1.16738 -3.75277,1.16738" fill="none" stroke="#000000" stroke-width="2.5" stroke-linecap="round"/><path d="M343.87243,145.69362c0,0 -6.03051,-0.54419 -9.66142,-1.65507c-3.78354,-1.15758 -8.35348,-3.81519 -8.35348,-3.81519" fill="none" stroke="#000000" stroke-width="2.5" stroke-linecap="round"/><path d="M340.28129,145.15704c0,0 -1.8244,-0.49532 -2.88024,-1.03435c-1.10022,-0.56169 -2.35017,-1.71325 -2.35017,-1.71325" fill="none" stroke="#000000" stroke-width="2.5" stroke-linecap="round"/><path d="M335.89044,149.68042l0.98457,-2.8627" fill="none" stroke="#000000" stroke-width="1.5" stroke-linecap="round"/><path d="M332.98888,148.84342l0.98457,-2.86269" fill="none" stroke="#000000" stroke-width="1.5" stroke-linecap="round"/><path d="M329.60273,152.0045c0,0 -0.74118,-0.35873 -0.94581,-0.79518c-0.23604,-0.50343 -0.04277,-1.13635 -0.04277,-1.13635" fill="none" stroke="#000000" stroke-width="1.5" stroke-linecap="round"/><path d="M344.01136,158.811c0,0 -1.13677,-2.49478 -0.13563,-4.79261c0.73241,-1.68103 2.65816,-2.54583 4.32554,-1.89937c0.99056,0.38405 1.59509,2.59407 0.8989,4.24742c-1.06668,2.53317 -5.08881,2.44457 -5.08881,2.44457z" fill="#ffffff" stroke="#000000" stroke-width="1.5" stroke-linecap="butt"/><path d="M319.25701,137.52224c3.29286,-6.69139 11.38669,-9.44645 18.07808,-6.1536c6.69139,3.29286 9.44645,11.38669 6.1536,18.07808c-3.29286,6.69139 -11.38669,9.44645 -18.07809,6.1536c-6.69139,-3.29286 -9.44645,-11.38669 -6.1536,-18.07808z" fill="none" stroke="#000000" stroke-width="3.5" stroke-linecap="butt"/><path d="M303.36846,168.12253c0,0 1.06414,2.33538 0.12696,4.4864c-0.68561,1.57362 -2.48833,2.38317 -4.04917,1.77802c-0.92727,-0.35951 -1.49319,-2.42833 -0.84146,-3.97604c0.99853,-2.37131 4.76367,-2.28838 4.76367,-2.28838z" data-paper-data="{&quot;index&quot;:null}" fill="#ffffff" stroke="#000000" stroke-width="1.5" stroke-linecap="butt"/><path d="M312.14545,221.30602c0,0 1.56722,-3.67532 4.83575,-4.6874c2.39116,-0.74041 4.99722,0.36567 5.81436,2.66612c0.8814,2.03073 -2.86828,3.02334 -5.61766,2.95594c-3.80938,-0.09338 -5.03244,-0.93466 -5.03244,-0.93466z" fill="#ffffff" stroke="#000000" stroke-width="1.5" stroke-linecap="butt"/><path d="M285.56372,180.99416c0,0 -3.52758,0.59696 -5.87131,-1.37636c-1.71461,-1.44362 -2.14181,-3.94241 -0.80365,-5.67096c1.10384,-1.6465 4.17514,-1.16932 5.45434,0.935c1.77238,2.91563 1.22062,6.11233 1.22062,6.11233z" data-paper-data="{&quot;index&quot;:null}" fill="#ffffff" stroke="#000000" stroke-width="1.5" stroke-linecap="butt"/></g><g><path d="M184.342,127.18053c-12.72059,-0.27723 -12.95537,-10.82949 -12.95537,-10.82949c0,0 2.695,-0.99518 3.83004,-1.72945c1.20607,-0.78023 3.20621,-2.82243 3.20621,-2.82243l17.8574,5.16881c0,0 -2.71064,10.41367 -11.93828,10.21257z" fill="#ffffff" stroke="none" stroke-width="0" stroke-linecap="butt"/><path d="M170.57563,116.44268c0,0 0.38077,-14.42138 14.27637,-14.96605c14.79414,-0.34683 11.70924,16.94692 11.70924,16.94692c0,0 -3.74794,-4.08852 -6.69009,-4.94665c-3.11694,-0.90911 -11.29523,-1.58611 -11.29523,-1.58611z" fill="#fff900" stroke="none" stroke-width="0" stroke-linecap="butt"/><path d="M165.02131,156.71757l13.18002,-29.41506" fill="none" stroke="#000000" stroke-width="4" stroke-linecap="round"/><path d="M165.07257,156.29421c0,0 7.08188,11.92132 7.07868,17.54343c-0.00348,6.11991 -7.0988,17.80948 -7.0988,17.80948" fill="none" stroke="#000000" stroke-width="3.5" stroke-linecap="round"/><path d="M164.89813,156.73977c0,0 -10.29241,4.4527 -15.32606,3.31053c-4.61518,-1.04722 -12.1213,-8.52501 -12.1213,-8.52501" fill="none" stroke="#000000" stroke-width="3.5" stroke-linecap="round"/><path d="M197.10491,128.3134c0,0 -6.93185,7.87309 -10.02687,8.75865c-3.51739,1.00641 -11.2228,-3.56698 -11.2228,-3.56698" fill="none" stroke="#000000" stroke-width="3.5" stroke-linecap="round"/><path d="M157.7173,144.30991c0,0 2.76061,-10.28486 6.10729,-12.2799c2.66693,-1.58982 11.74059,0.9128 11.74059,0.9128" data-paper-data="{&quot;index&quot;:null}" fill="none" stroke="#000000" stroke-width="3.5" stroke-linecap="round"/><path d="M178.3109,111.21063c0,0 -0.92966,1.96352 -3.08198,3.3133c-2.05257,1.28725 -3.75277,1.16738 -3.75277,1.16738" fill="none" stroke="#000000" stroke-width="2" stroke-linecap="round"/><path d="M191.48354,112.80473c0,0 -4.13461,0.20715 -7.23663,-0.07226c-2.61212,-0.23529 -5.88938,-1.50911 -5.88938,-1.50911" fill="none" stroke="#000000" stroke-width="2" stroke-linecap="round"/><path d="M188.39044,120.68042l0.98457,-2.8627" fill="none" stroke="#000000" stroke-width="1.5" stroke-linecap="round"/><path d="M185.48888,119.84342l0.98457,-2.86269" fill="none" stroke="#000000" stroke-width="1.5" stroke-linecap="round"/><path d="M182.10273,123.0045c0,0 -0.74118,-0.35873 -0.94581,-0.79518c-0.23604,-0.50343 -0.04277,-1.13635 -0.04277,-1.13635" fill="none" stroke="#000000" stroke-width="1.5" stroke-linecap="round"/><path d="M196.94001,128.2011c0,0 -1.32376,-2.4008 -0.50082,-4.7683c0.60205,-1.732 2.45622,-2.74118 4.16805,-2.22379c1.01697,0.30737 1.78832,2.46484 1.22028,4.16648c-0.87034,2.60716 -4.88751,2.82563 -4.88751,2.82563z" fill="#ffffff" stroke="#000000" stroke-width="1.5" stroke-linecap="butt"/><path d="M171.75701,108.52224c3.29286,-6.69139 11.38669,-9.44645 18.07808,-6.1536c6.69139,3.29286 9.44645,11.38669 6.1536,18.07808c-3.29286,6.69139 -11.38669,9.44645 -18.07809,6.1536c-6.69139,-3.29286 -9.44645,-11.38669 -6.1536,-18.07808z" fill="none" stroke="#000000" stroke-width="3.5" stroke-linecap="butt"/><path d="M157.89309,144.11008c0,0 1.71919,1.90546 1.4747,4.239c-0.17886,1.70714 -1.65331,3.02289 -3.32399,2.91689c-0.99253,-0.06297 -2.15628,-1.86463 -2.0019,-3.53685c0.23651,-2.56207 3.8512,-3.61904 3.8512,-3.61904z" data-paper-data="{&quot;index&quot;:null}" fill="#ffffff" stroke="#000000" stroke-width="1.5" stroke-linecap="butt"/><path d="M164.64545,192.30602c0,0 1.56722,-3.67532 4.83575,-4.6874c2.39116,-0.74041 4.99722,0.36567 5.81436,2.66612c0.8814,2.03073 -2.86828,3.02334 -5.61766,2.95594c-3.80938,-0.09338 -5.03244,-0.93466 -5.03244,-0.93466z" fill="#ffffff" stroke="#000000" stroke-width="1.5" stroke-linecap="butt"/><path d="M138.06372,151.99416c0,0 -3.52758,0.59696 -5.87131,-1.37636c-1.71461,-1.44362 -2.14181,-3.94241 -0.80365,-5.67096c1.10384,-1.6465 4.17514,-1.16932 5.45434,0.935c1.77238,2.91563 1.22062,6.11233 1.22062,6.11233z" data-paper-data="{&quot;index&quot;:null}" fill="#ffffff" stroke="#000000" stroke-width="1.5" stroke-linecap="butt"/><path d="M196.8824,118.14454c0,0 -2.37695,-0.83831 -3.90713,-1.93058c-1.81716,-1.29713 -3.96846,-3.34117 -3.96846,-3.34117" data-paper-data="{&quot;index&quot;:null}" fill="none" stroke="#000000" stroke-width="2" stroke-linecap="round"/></g></g></g></svg>