<svg version="1.1" xmlns="http://www.w3.org/2000/svg" xmlns:xlink="http://www.w3.org/1999/xlink" width="344" height="456" viewBox="0,0,171.72588,228.31062"><g transform="translate(-154.26206,-66.09469)"><g data-paper-data="{&quot;isPaintingLayer&quot;:true}" fill-rule="nonzero" stroke-linejoin="miter" stroke-miterlimit="10" stroke-dasharray="" stroke-dashoffset="0" style="mix-blend-mode: normal"><path d="" data-paper-data="{&quot;index&quot;:null}" fill="none" stroke="#000000" stroke-width="3.5" stroke-linecap="round"/><path d="" data-paper-data="{&quot;index&quot;:null}" fill="none" stroke="#000000" stroke-width="3.5" stroke-linecap="round"/><g><g data-paper-data="{&quot;index&quot;:null}" fill="none" stroke="#000000" stroke-width="2.5" stroke-linecap="round"><path d="M199.59328,108.74758v11.75"/><path d="M210.75994,120.49758v-11.75"/></g><path d="M252.01206,101.88609c0,0 5.20596,-10.18484 9.80654,-13.58527c4.95624,-3.66331 18.44346,-6.16473 18.44346,-6.16473c0,0 19.94126,0.24397 28.15472,16.94223c5.92084,8.51247 2.48417,23.9385 2.48417,23.9385c0,0 -6.3215,-1.3684 -9.17557,-3.23271c-3.27779,-1.84458 -8.32374,-8.64095 -9.64249,-9.85818c-1.462,-1.34946 -3.98534,-7.24046 -3.98534,-7.24046c0,0 -11.20044,4.391 -19.00072,5.04409c-7.21939,0.60445 -17.08478,-5.84346 -17.08478,-5.84346z" fill="#ffd200" stroke="none" stroke-width="0" stroke-linecap="butt"/><path d="M155.76206,113.66423c0,-17.67311 14.32689,-32 32,-32c17.67311,0 32,14.32689 32,32c0,17.67311 -14.32689,32 -32,32c-17.67311,0 -32,-14.32689 -32,-32z" fill="none" stroke="#000000" stroke-width="3" stroke-linecap="butt"/><path d="M156.76206,117.74236c0,0 0.18212,-15.09433 4.35712,-20.84559c6.29135,-8.66664 23.1303,-18.49163 36.45828,-14.04209c1.41207,0.47142 7.89337,-0.59739 14.03866,-1.86733c3.9585,-0.81803 17.89594,-11.99499 17.89594,-11.99499c0,0 0.31366,14.11508 -4.31017,19.05238c-0.61936,0.66135 8.79825,-5.75337 8.79825,-5.75337c0,0 -0.75867,7.84626 -4.13561,13.28711c-3.0373,4.89363 -7.90118,7.34469 -9.15219,8.87756c-2.61357,3.20243 -16.90424,5.62874 -17.70029,5.7863c-12.26639,2.4278 -35.07064,-6.57546 -35.07064,-6.57546c0,0 -3.26008,6.7816 -4.30305,8.39214c-3.75235,5.79429 -6.8763,5.68332 -6.8763,5.68332z" fill="#772e00" stroke="none" stroke-width="0" stroke-linecap="butt"/><path d="M187.76206,223.66423v-77.75" fill="none" stroke="#000000" stroke-width="3.5" stroke-linecap="round"/><path d="M176.26206,280.47674l11.5,-57l23.91666,68.01041" fill="none" stroke="#000000" stroke-width="3.5" stroke-linecap="round"/><path d="M159.92872,292.65531h22" fill="none" stroke="#000000" stroke-width="3.5" stroke-linecap="round"/><path d="M159.76206,292.48865c0,0 0.49896,-11.86293 12.59671,-11.62448c9.53748,0.18798 10.06996,11.29114 10.06996,11.29114" fill="none" stroke="#000000" stroke-width="3.5" stroke-linecap="round"/><path d="M212.26206,291.65531h22" fill="none" stroke="#000000" stroke-width="3.5" stroke-linecap="round"/><path d="M212.0954,291.48865c0,0 4.16563,-9.19626 12.59671,-10.62448c8.87081,-1.47868 10.06995,10.29114 10.06995,10.29114" fill="none" stroke="#000000" stroke-width="3.5" stroke-linecap="round"/><path d="M169.47588,201.97671c0,0 4.042,-11.58102 7.11687,-16.90439c3.81917,-6.61196 10.66931,-17.09561 10.66931,-17.09561" fill="none" stroke="#000000" stroke-width="3" stroke-linecap="round"/><path d="M162.10627,209.0855c1.90544,-4.6926 7.62099,-6.64155 7.62099,-6.64155c0,0 2.90477,5.45157 2.68156,10.57694c-0.11914,2.73577 -1.54861,8.35367 -7.10221,7.15478c-3.52876,-0.76178 -5.54677,-5.31149 -3.20033,-11.09018z" fill="none" stroke="#000000" stroke-width="3" stroke-linecap="butt"/><path d="M225.47309,188.0453c0,0 -7.10943,1.46366 -19.61883,-2.64543c-12.18628,-4.00295 -18.02113,-16.83548 -18.02113,-16.83548" data-paper-data="{&quot;index&quot;:null}" fill="none" stroke="#000000" stroke-width="3" stroke-linecap="round"/><path d="M233.10011,193.85778c-4.99716,-0.82437 -8.15786,-5.96983 -8.15786,-5.96983c0,0 4.67732,-4.03483 9.72586,-4.94672c2.69476,-0.48674 6.48958,2.16942 9.54414,5.85071c-2.96533,2.60987 -4.95842,6.08101 -11.11214,5.06584z" data-paper-data="{&quot;index&quot;:null}" fill="none" stroke="#000000" stroke-width="3" stroke-linecap="butt"/><path d="M239.06207,185.60499c0,0 -1.31957,-0.74636 -2.72813,-0.44828c-1.11699,0.23638 -2.28995,1.53162 -2.90521,1.53162c-0.81846,0 -1.95,-1.08333 -1.95,-1.08333" fill="none" stroke="#000000" stroke-width="1.5" stroke-linecap="round"/><path d="M167.65891,104.07048c0,0 -0.79857,5.00041 -3.63315,8.77514c-2.56914,3.42126 -7.0137,6.22486 -7.0137,6.22486" fill="none" stroke="#000000" stroke-width="2.5" stroke-linecap="round"/><path d="M207.51206,110.07048c0,0 -8.81759,1.45153 -15.19071,0.77139c-14.44026,-1.54104 -24.80929,-6.77139 -24.80929,-6.77139" fill="none" stroke="#000000" stroke-width="2.5" stroke-linecap="round"/><path d="M235.38706,78.19652c0,0 -2.0319,12.42498 -5.86896,18.52635c-1.6005,2.54498 -5.8277,7.7637 -11.27852,10.10935c-6.16305,2.65215 -13.51919,3.53097 -13.51919,3.53097" fill="none" stroke="#000000" stroke-width="2.5" stroke-linecap="round"/><path d="M229.71637,67.34469c0,0 -9.58693,10.25855 -18.46209,13.47059c-10.39279,3.7613 -22.16738,0.81723 -22.16738,0.81723" fill="none" stroke="#000000" stroke-width="2.5" stroke-linecap="round"/><path d="M235.0954,78.38922c0,0 -1.97272,4.16737 -4.48506,6.24598c-2.73917,2.26627 -6.01494,3.08736 -6.01494,3.08736" fill="none" stroke="#000000" stroke-width="2.5" stroke-linecap="round"/><path d="M229.42873,67.72257c0,0 0.64439,6.50104 -0.03744,10.99112c-0.7339,4.83297 -4.62923,8.67555 -4.62923,8.67555" fill="none" stroke="#000000" stroke-width="2.5" stroke-linecap="round"/><path d="M214.72966,130.89797c-5.68681,8.88034 -15.63985,14.76624 -26.9676,14.76624c-17.67311,0 -32,-14.32689 -32,-32c0,-17.67311 14.32689,-32 32,-32c2.13721,0 4.2255,0.20951 6.24542,0.60913" fill="none" stroke="#000000" stroke-width="3" stroke-linecap="butt"/><path d="M281.21225,145.66423c-17.67311,0 -32,-14.32689 -32,-32c0,-17.67311 14.32689,-32 32,-32c17.67311,0 32,14.32689 32,32c0,17.67311 -14.32689,32 -32,32z" data-paper-data="{&quot;index&quot;:null}" fill="none" stroke="#000000" stroke-width="3" stroke-linecap="butt"/><path d="M281.21225,223.66423v-77.75" data-paper-data="{&quot;index&quot;:null}" fill="none" stroke="#000000" stroke-width="3.5" stroke-linecap="round"/><path d="M265.96226,291.15382l15.24999,-68.01041l24.16667,68" data-paper-data="{&quot;index&quot;:null}" fill="none" stroke="#000000" stroke-width="3.5" stroke-linecap="round"/><path d="M266.04559,291.65531" data-paper-data="{&quot;index&quot;:null}" fill="none" stroke="#000000" stroke-width="3.5" stroke-linecap="round"/><path d="M266.21225,291.48865" data-paper-data="{&quot;index&quot;:null}" fill="none" stroke="#000000" stroke-width="3.5" stroke-linecap="round"/><path d="M281.71225,167.97671c0,0 6.85014,10.48365 10.66931,17.09561c3.07487,5.32337 7.11687,16.90439 7.11687,16.90439" data-paper-data="{&quot;index&quot;:null}" fill="none" stroke="#000000" stroke-width="3" stroke-linecap="round"/><path d="M306.86803,209.08549c2.34644,5.77869 0.32843,10.3284 -3.20033,11.09018c-5.5536,1.19889 -6.98307,-4.41901 -7.10221,-7.15478c-0.22321,-5.12537 2.68156,-10.57694 2.68156,-10.57694c0,0 5.71555,1.94895 7.62099,6.64155z" data-paper-data="{&quot;index&quot;:null}" fill="none" stroke="#000000" stroke-width="3" stroke-linecap="butt"/><path d="M281.14118,168.56439c0,0 -5.83485,12.83253 -18.02113,16.83548c-12.5094,4.10909 -19.61883,2.64543 -19.61883,2.64543" data-paper-data="{&quot;index&quot;:null}" fill="none" stroke="#000000" stroke-width="3" stroke-linecap="round"/><path d="M274.96683,82.27334c2.01992,-0.39962 4.10821,-0.60913 6.24542,-0.60913c17.67311,0 32,14.32689 32,32c0,17.67311 -14.32689,32 -32,32c-11.32775,0 -21.28079,-5.8859 -26.9676,-14.76624" data-paper-data="{&quot;index&quot;:null}" fill="none" stroke="#000000" stroke-width="3" stroke-linecap="butt"/><path d="M305.42705,290.97643c0,0 7.96096,1.11111 13.82997,-1.77038c5.74001,-2.81816 4.69449,-7.81756 4.69449,-7.81756" data-paper-data="{&quot;index&quot;:null}" fill="none" stroke="#000000" stroke-width="3.5" stroke-linecap="round"/><path d="M305.21156,290.88096c0,0 0.57506,-10.07934 7.92642,-14.44744c7.74343,-4.57351 11.09996,4.30848 11.09996,4.30848" data-paper-data="{&quot;index&quot;:null}" fill="none" stroke="#000000" stroke-width="3.5" stroke-linecap="round"/><path d="M247.7854,281.04201c0,0 -4.53782,6.43809 2.47407,9.40609c6.71135,2.84078 14.90769,1.3062 14.90769,1.3062" fill="none" stroke="#000000" stroke-width="3.5" stroke-linecap="round"/><path d="M247.71547,281.14056c0,0 4.18308,-5.7228 12.28167,-0.61454c5.28642,3.33446 5.92608,11.12973 5.92608,11.12973" fill="none" stroke="#000000" stroke-width="3.5" stroke-linecap="round"/><path d="M311.07863,124.09265c0,0 -7.91779,-2.63755 -13.46616,-7.73829c-5.25369,-4.82983 -9.32923,-14.48601 -9.32923,-14.48601" fill="none" stroke="#000000" stroke-width="3" stroke-linecap="round"/><path d="M288.25448,101.88852c0,0 -9.44992,5.43859 -20.99246,5.50505c-10.17949,0.31293 -15.35201,-6.38537 -15.35201,-6.38537" fill="none" stroke="#000000" stroke-width="3" stroke-linecap="round"/><g data-paper-data="{&quot;index&quot;:null}" fill="none" stroke="#000000" stroke-width="2" stroke-linecap="round"><path d="M276.80893,127.33941c0,0 -2.76087,2.38958 -5.32384,3.59441c-2.37163,1.11488 -5.47793,1.46039 -5.47793,1.46039" data-paper-data="{&quot;index&quot;:null}"/><path d="M276.80893,127.33941c0,0 1.78992,5.72394 -3.2088,7.91636c-5.85724,2.56896 -7.59298,-2.86155 -7.59298,-2.86155" data-paper-data="{&quot;index&quot;:null}"/></g><g fill="none" stroke="#000000" stroke-width="2" stroke-linecap="round"><path d="M189.26863,126.46141l9.99319,4.42308"/><path d="M199.26182,130.88449c0,0 -1.92435,5.97825 -7.35191,3.76414c-4.63202,-1.88958 -2.64128,-8.18722 -2.64128,-8.18722"/></g><g data-paper-data="{&quot;index&quot;:null}" fill="none" stroke="#000000" stroke-width="2.5" stroke-linecap="round"><path d="M259.34328,110.24758v10.5"/><path d="M270.50994,120.74758v-10.5"/></g></g></g></g></svg>