<svg version="1.1" xmlns="http://www.w3.org/2000/svg" xmlns:xlink="http://www.w3.org/1999/xlink" width="63.812" height="51.858" viewBox="0,0,63.812,51.858"><g transform="translate(-208,-154)"><g data-paper-data="{&quot;isPaintingLayer&quot;:true}" fill="#000000" fill-rule="nonzero" stroke="none" stroke-width="1" stroke-linecap="butt" stroke-linejoin="miter" stroke-miterlimit="10" stroke-dasharray="" stroke-dashoffset="0" style="mix-blend-mode: normal"><path d="M265.279,166.915c0.025,0.56 0.039,1.128 0.039,1.694c0,17.3 -13.168,37.249 -37.251,37.249c-7.391,0 -14.273,-2.165 -20.067,-5.882c1.026,0.123 2.067,0.184 3.122,0.184c6.131,0 11.778,-2.094 16.26,-5.606c-5.731,-0.104 -10.563,-3.89 -12.23,-9.09c0.798,0.153 1.619,0.231 2.465,0.231c1.193,0 2.348,-0.159 3.449,-0.457c-5.991,-1.202 -10.504,-6.495 -10.504,-12.84c0,-0.052 0,-0.107 0.002,-0.162c1.765,0.981 3.784,1.569 5.93,1.638c-3.512,-2.347 -5.824,-6.356 -5.824,-10.898c0,-2.397 0.645,-4.645 1.771,-6.581c6.459,7.922 16.102,13.131 26.987,13.679c-0.22,-0.96 -0.338,-1.955 -0.338,-2.981c0,-7.232 5.863,-13.093 13.092,-13.093c3.766,0 7.167,1.591 9.554,4.133c2.983,-0.584 5.784,-1.676 8.313,-3.176c-0.978,3.057 -3.053,5.624 -5.756,7.244c2.65,-0.317 5.171,-1.021 7.519,-2.06c-1.754,2.624 -3.974,4.927 -6.533,6.774z"/></g></g></svg>